# xmcd CD database file
# Copyright (C) 1993-1996 Ti Kan
#
# Track frame offsets:
#	150
#	12932
#	25892
#	37750
#	50285
#	63772
#	79455
#	94147
#	109305
#	124162
#	137677
#	153960
#	167232
#	179190
#	195137
#	209080
#	219800
#	230577
#	241782
#	253652
#
# Disc length: 3527 seconds
#
# Revision: 2
# Processed by: cddbd v1.4PL0 Copyright (c) Steve Scherf et al.
# Submitted via: Gronk 1.4
#
DISCID=0f0dc514
DTITLE=Mickey Gilley - Ten Years of Hits
DYEAR=1900
DGENRE=country
TTITLE0=Room Full of Roses
TTITLE1=I Overlooked A Orchid
TTITLE2=Window Up Above
TTITLE3=City Lights
TTITLE4=Don't The Girls All Get Prettier At Closing Time
TTITLE5=Lonely Nights
TTITLE6=Tears Of The Lonely
TTITLE7=Put Your Dreams Away
TTITLE8=Talk To Me
TTITLE9=You've Really Got A Hold On Me
TTITLE10=Stand By Me
TTITLE11=True Love Ways
TTITLE12=That's All That Matters
TTITLE13=A Headaache Tomorrow (Or A Heartache Tonight)
TTITLE14=You Don't Know Me
TTITLE15=Bring It On Home To Me
TTITLE16=Lawdy Miss Clawdy
TTITLE17=She's Pulling Me Back Again
TTITLE18=Chains Of Love
TTITLE19=The Power of Positive Drinkin'
EXTD=
EXTT0=
EXTT1=
EXTT2=
EXTT3=
EXTT4=
EXTT5=
EXTT6=
EXTT7=
EXTT8=
EXTT9=
EXTT10=
EXTT11=
EXTT12=
EXTT13=
EXTT14=
EXTT15=
EXTT16=
EXTT17=
EXTT18=
EXTT19=
PLAYORDER=
